<svg width="831" height="386" viewBox="0 0 831 386" fill="none" xmlns="http://www.w3.org/2000/svg">
<path d="M817.826 0.616318L13.1628 0.816334C5.89274 0.818396 0 7.40863 0 15.5392V81.9777C0 90.1103 5.89459 96.7026 13.1665 96.7026H58.743C66.0149 96.7026 71.9095 103.295 71.9095 111.428V371.076C71.9095 379.208 77.8041 385.801 85.076 385.801H570.123C577.395 385.801 583.289 379.208 583.289 371.076C583.289 371.076 583.289 326.601 583.289 318.468C583.289 310.335 589.184 303.743 596.456 303.743C603.728 303.743 817.834 303.743 817.834 303.743C825.105 303.743 831 297.151 831 289.018V15.3412C830.994 7.20655 825.098 0.616318 817.826 0.616318Z" fill="#FDB913"/>
</svg>
