<svg width="20" height="20" viewBox="0 0 20 20" fill="none" xmlns="http://www.w3.org/2000/svg">
<g id="001-coin" clip-path="url(#clip0_87_74)">
<g id="Group">
<g id="Group_2">
<path id="Vector" d="M10 0C4.47254 0 0 4.47297 0 10C0 15.5275 4.47293 20 10 20C15.5275 20 20 15.527 20 10C20 4.47254 15.527 0 10 0ZM10 18.4375C5.33621 18.4375 1.5625 14.6634 1.5625 10C1.5625 5.33621 5.33652 1.5625 10 1.5625C14.6637 1.5625 18.4375 5.33652 18.4375 10C18.4375 14.6637 14.6635 18.4375 10 18.4375Z" fill="#FDB913"/>
</g>
</g>
<g id="Group_3">
<g id="Group_4">
<path id="Vector_2" d="M10 3.90625C6.63988 3.90625 3.90625 6.63988 3.90625 10C3.90625 11.947 4.85109 13.7933 6.43375 14.9389C6.78328 15.1919 7.27168 15.1136 7.52469 14.7641C7.7777 14.4146 7.69945 13.9262 7.34992 13.6732C6.17199 12.8205 5.46875 11.4474 5.46875 10C5.46875 7.50145 7.50148 5.46875 10 5.46875C12.4986 5.46875 14.5312 7.50145 14.5312 10C14.5312 12.4986 12.4986 14.5312 10 14.5312C9.56852 14.5312 9.21875 14.881 9.21875 15.3125C9.21875 15.744 9.56852 16.0938 10 16.0938C13.3601 16.0938 16.0938 13.3601 16.0938 10C16.0938 6.63988 13.3601 3.90625 10 3.90625Z" fill="#FDB913"/>
</g>
</g>
</g>
<defs>
<clipPath id="clip0_87_74">
<rect width="20" height="20" fill="white"/>
</clipPath>
</defs>
</svg>
