<svg width="20" height="20" viewBox="0 0 20 20" fill="none" xmlns="http://www.w3.org/2000/svg">
<g id="002-sprout" clip-path="url(#clip0_87_92)">
<path id="Vector" d="M17.074 7.85522C18.9609 5.96832 20 3.45947 20 0.791015V0.781249C20 0.349731 19.6503 0 19.2187 0H19.209C16.5405 0 14.0317 1.03912 12.1448 2.92602C11.2173 3.8536 10.4951 4.93164 9.99999 6.10488C9.50485 4.93164 8.7828 3.8536 7.85522 2.92602C5.96832 1.03912 3.45947 0 0.791015 0H0.781249C0.349731 0 0 0.349731 0 0.781249V0.791015C0 3.45947 1.03912 5.96832 2.92602 7.85522C4.62997 9.55917 6.84097 10.5714 9.21874 10.7518V15.4878C6.10214 15.6337 3.00171 16.6572 0.325012 18.5847C-0.025177 18.8368 -0.104523 19.3251 0.147552 19.6751C0.300293 19.8872 0.53955 20 0.782165 20C0.941772 20 9.75494 13.3667 18.7619 19.8527C19.1121 20.1048 19.6002 20.0253 19.8523 19.6753C20.1045 19.3251 20.025 18.8368 19.675 18.5847C17.1376 16.7576 14.0691 15.6418 10.7812 15.4878V10.7518C13.159 10.5714 15.37 9.55917 17.074 7.85522ZM13.2497 4.03091C14.649 2.63153 16.4538 1.78482 18.3993 1.60065C18.2152 3.54614 17.3685 5.35095 15.9691 6.75033C14.5697 8.14971 12.7647 8.99642 10.8194 9.1806C11.0036 7.23526 11.8503 5.43029 13.2497 4.03091ZM4.03091 6.75033C2.63153 5.35095 1.78482 3.54599 1.60065 1.60065C3.54599 1.78482 5.35095 2.63153 6.75033 4.03091C8.14971 5.43029 8.99642 7.23526 9.1806 9.1806C7.23526 8.99642 5.43029 8.14971 4.03091 6.75033Z" fill="#FDB913"/>
</g>
<defs>
<clipPath id="clip0_87_92">
<rect width="20" height="20" fill="white"/>
</clipPath>
</defs>
</svg>
