<svg width="20" height="20" viewBox="0 0 20 20" fill="none" xmlns="http://www.w3.org/2000/svg">
<g id="004-profile" clip-path="url(#clip0_87_82)">
<path id="Vector" d="M18.0525 10.937V9.06296L19.3968 7.18185C19.575 6.93268 19.5911 6.60233 19.4379 6.33698L17.894 3.66302C17.7408 3.39767 17.4468 3.24631 17.1419 3.27606L14.8407 3.49976L13.2175 2.56271L12.2607 0.457916C12.1339 0.179138 11.8558 0 11.5495 0H8.46177C8.15537 0 7.87736 0.179138 7.75055 0.457916L6.79368 2.56271L5.1706 3.49976L2.86942 3.27606C2.56424 3.24631 2.27051 3.39767 2.11731 3.66302L0.57343 6.33698C0.420232 6.60233 0.436254 6.93268 0.614477 7.18185L1.95878 9.06296V10.937L0.614477 12.8181C0.436254 13.0673 0.420232 13.3977 0.57343 13.663L2.11731 16.337C2.27036 16.6023 2.56424 16.7535 2.86942 16.7239L5.1706 16.5002L6.79368 17.4373L7.75055 19.5421C7.87736 19.8209 8.15537 20 8.46177 20H11.5495C11.8558 20 12.1339 19.8209 12.2607 19.5421L13.2175 17.4373L14.8406 16.5002L17.1417 16.7239C17.4472 16.7542 17.7408 16.6023 17.894 16.337L19.4377 13.663C19.5909 13.3977 19.5749 13.0673 19.3968 12.8181L18.0525 10.937ZM12.2194 16.2094C12.0784 16.2909 11.9663 16.4143 11.8988 16.5627L11.0465 18.4375H8.96485L8.11249 16.5627C8.04505 16.4143 7.93305 16.2909 7.79191 16.2094L6.26633 15.3285C6.64719 13.5829 8.19779 12.3204 10.0057 12.3204C11.8434 12.3204 13.3705 13.6121 13.7451 15.3285L12.2194 16.2094ZM10.0057 10.7552C8.74207 10.7552 7.71393 9.72717 7.71393 8.46359C7.71393 7.19986 8.74207 6.17188 10.0057 6.17188C11.2692 6.17188 12.2974 7.19986 12.2974 8.46359C12.2974 9.72717 11.2692 10.7552 10.0057 10.7552ZM16.6357 11.6418L17.8331 13.3174L16.7923 15.1201L15.267 14.9718C14.9146 13.3894 13.8779 12.0969 12.5221 11.3805C13.3409 10.6731 13.8599 9.62784 13.8599 8.46359C13.8599 6.33835 12.1309 4.60938 10.0057 4.60938C7.88041 4.60938 6.15143 6.33835 6.15143 8.46359C6.15143 9.62784 6.67038 10.6731 7.48917 11.3805C6.13343 12.0969 5.09675 13.3893 4.74442 14.9718L3.219 15.1201L2.17804 13.3174L3.37555 11.6418C3.47031 11.5092 3.52128 11.3504 3.52128 11.1876V8.81241C3.52128 8.6496 3.47031 8.49075 3.37555 8.35815L2.17804 6.68259L3.219 4.87991L5.26887 5.07919C5.43091 5.09476 5.59403 5.05951 5.73502 4.97818L7.79191 3.79059C7.93305 3.70911 8.04505 3.58566 8.11249 3.43735L8.96485 1.5625H11.0465L11.8988 3.43735C11.9663 3.58566 12.0783 3.70911 12.2194 3.79059L14.2763 4.97818C14.4173 5.05951 14.5801 5.09476 14.7424 5.07919L16.7923 4.87991L17.8331 6.68259L16.6357 8.35815C16.541 8.49075 16.49 8.6496 16.49 8.81241V11.1876C16.49 11.3504 16.541 11.5092 16.6357 11.6418Z" fill="#FDB913"/>
</g>
<defs>
<clipPath id="clip0_87_82">
<rect width="20" height="20" fill="white"/>
</clipPath>
</defs>
</svg>
