<svg width="20" height="20" viewBox="0 0 20 20" fill="none" xmlns="http://www.w3.org/2000/svg">
<g id="005-trolley" clip-path="url(#clip0_87_85)">
<g id="Group">
<path id="Vector" d="M19.2188 6.875H16.7329L15.3863 4.18187C15.2539 3.91719 14.9834 3.75 14.6875 3.75H13.6079L12.2613 1.05687C12.1289 0.792187 11.8584 0.625 11.5625 0.625H8.4375C8.1416 0.625 7.87109 0.792187 7.73871 1.05687L6.39215 3.75H5.3125C5.01656 3.75 4.74605 3.91719 4.61371 4.18187L3.26715 6.875H0.78125C0.349766 6.875 0 7.22477 0 7.65625C0 8.08773 0.349766 8.4375 0.78125 8.4375H1.62441L3.87313 15.1836C3.52406 15.4561 3.25391 15.8249 3.10313 16.25H2.1875C1.75602 16.25 1.40625 16.5998 1.40625 17.0312C1.40625 17.4627 1.75602 17.8125 2.1875 17.8125H3.10313C3.42563 18.7218 4.29402 19.375 5.3125 19.375C6.33098 19.375 7.19934 18.7218 7.52187 17.8125H12.4781C12.8006 18.7218 13.669 19.375 14.6875 19.375C15.706 19.375 16.5743 18.7218 16.8969 17.8125H17.8125C18.244 17.8125 18.5938 17.4627 18.5938 17.0312C18.5938 16.5998 18.244 16.25 17.8125 16.25H16.8969C16.7461 15.8249 16.4759 15.4561 16.1269 15.1836L18.3756 8.4375H19.2188C19.6502 8.4375 20 8.08773 20 7.65625C20 7.22477 19.6502 6.875 19.2188 6.875ZM5.79535 5.3125H8.4375C8.86898 5.3125 9.21875 4.96273 9.21875 4.53125C9.21875 4.09977 8.86898 3.75 8.4375 3.75H8.1391L8.92035 2.1875H11.0797L11.8609 3.75H11.5625C11.131 3.75 10.7812 4.09977 10.7812 4.53125C10.7812 4.96273 11.131 5.3125 11.5625 5.3125H13.1206C13.1223 5.3125 13.1239 5.31266 13.1256 5.31266C13.1277 5.31266 13.1296 5.3125 13.1317 5.3125H14.2047L14.9859 6.875H5.0141L5.79535 5.3125ZM5.3125 17.8125C4.88172 17.8125 4.53125 17.462 4.53125 17.0312C4.53125 16.6005 4.88172 16.25 5.3125 16.25C5.74328 16.25 6.09375 16.6005 6.09375 17.0312C6.09375 17.462 5.74328 17.8125 5.3125 17.8125ZM14.6875 17.8125C14.2567 17.8125 13.9062 17.462 13.9062 17.0312C13.9062 16.6005 14.2567 16.25 14.6875 16.25C15.1183 16.25 15.4688 16.6005 15.4688 17.0312C15.4688 17.462 15.1183 17.8125 14.6875 17.8125ZM14.6449 14.6886C13.6449 14.7066 12.7961 15.3535 12.4782 16.25H7.52187C7.20391 15.3535 6.35508 14.7066 5.35516 14.6886L3.27145 8.4375H16.7286L14.6449 14.6886Z" fill="#FDB913"/>
<path id="Vector_2" d="M10 10C9.56852 10 9.21875 10.3498 9.21875 10.7812V12.3438C9.21875 12.7752 9.56852 13.125 10 13.125C10.4315 13.125 10.7812 12.7752 10.7812 12.3438V10.7812C10.7812 10.3498 10.4315 10 10 10Z" fill="#FDB913"/>
<path id="Vector_3" d="M6.875 10C6.44352 10 6.09375 10.3498 6.09375 10.7812V12.3438C6.09375 12.7752 6.44352 13.125 6.875 13.125C7.30648 13.125 7.65625 12.7752 7.65625 12.3438V10.7812C7.65625 10.3498 7.30648 10 6.875 10Z" fill="#FDB913"/>
<path id="Vector_4" d="M13.125 10C12.6935 10 12.3438 10.3498 12.3438 10.7812V12.3438C12.3438 12.7752 12.6935 13.125 13.125 13.125C13.5565 13.125 13.9062 12.7752 13.9062 12.3438V10.7812C13.9062 10.3498 13.5565 10 13.125 10Z" fill="#FDB913"/>
</g>
</g>
<defs>
<clipPath id="clip0_87_85">
<rect width="20" height="20" fill="white"/>
</clipPath>
</defs>
</svg>
