<svg width="20" height="20" viewBox="0 0 20 20" fill="none" xmlns="http://www.w3.org/2000/svg">
<g id="006-programming" clip-path="url(#clip0_87_98)">
<path id="Vector" d="M2.17943 10C3.74071 11.3031 4.67409 13.2536 4.67409 15.3224V16.1458C4.67409 17.4095 5.70208 18.4375 6.96566 18.4375C7.39717 18.4375 7.74691 18.7872 7.74691 19.2188C7.74691 19.6503 7.39717 20 6.96566 20C4.84056 20 3.11159 18.271 3.11159 16.1458V15.3224C3.11159 13.412 2.08376 11.6318 0.429249 10.6766C-0.0915336 10.376 -0.0904654 9.62341 0.429249 9.32343C2.08376 8.36823 3.11159 6.58798 3.11159 4.67743V3.85422C3.11159 1.72897 4.84056 0 6.96566 0C7.39717 0 7.74691 0.349731 7.74691 0.78125C7.74691 1.21277 7.39717 1.5625 6.96566 1.5625C5.70208 1.5625 4.67409 2.59048 4.67409 3.85422V4.67758C4.67409 6.74637 3.74071 8.6969 2.17943 10ZM19.648 9.32343C17.9935 8.36823 16.9657 6.58798 16.9657 4.67758V3.85422C16.9657 1.72897 15.2367 0 13.1116 0C12.6801 0 12.3303 0.349731 12.3303 0.78125C12.3303 1.21277 12.6801 1.5625 13.1116 1.5625C14.3752 1.5625 15.4032 2.59048 15.4032 3.85422V4.67758C15.4032 6.74637 16.3365 8.6969 17.8978 10C16.3365 11.3031 15.4032 13.2536 15.4032 15.3224V16.1458C15.4032 17.4095 14.3752 18.4375 13.1116 18.4375C12.6801 18.4375 12.3303 18.7872 12.3303 19.2188C12.3303 19.6503 12.6801 20 13.1116 20C15.2367 20 16.9657 18.271 16.9657 16.1458V15.3224C16.9657 13.412 17.9935 11.6318 19.648 10.6766C20.1677 10.3766 20.1686 9.62402 19.648 9.32343Z" fill="#FDB913"/>
</g>
<defs>
<clipPath id="clip0_87_98">
<rect width="20" height="20" fill="white"/>
</clipPath>
</defs>
</svg>
