<svg width="150" height="150" viewBox="0 0 150 150" fill="none" xmlns="http://www.w3.org/2000/svg">
<rect width="150" height="150" rx="10" fill="#1E1E1E"/>
<path d="M114.11 35.6106C106.537 32.067 98.4384 29.4918 89.9721 28.0254C88.9324 29.9052 87.7176 32.4337 86.8801 34.4451C77.8802 33.0916 68.963 33.0916 60.1286 34.4451C59.2913 32.4337 58.049 29.9052 56.9999 28.0254C48.5244 29.4918 40.4171 32.0765 32.8434 35.6293C17.5674 58.7134 13.4263 81.2242 15.4968 103.415C25.6287 110.982 35.4477 115.578 45.1011 118.585C47.4845 115.305 49.6102 111.818 51.4415 108.143C47.9538 106.818 44.6133 105.182 41.457 103.284C42.2943 102.663 43.1134 102.015 43.9048 101.347C63.1562 110.352 84.0734 110.352 103.095 101.347C103.895 102.015 104.714 102.663 105.543 103.284C102.377 105.192 99.0274 106.827 95.5397 108.153C97.3709 111.818 99.4875 115.315 101.88 118.595C111.543 115.587 121.371 110.991 131.503 103.415C133.932 77.6902 127.352 55.3861 114.11 35.6106ZM54.0642 89.768C48.2851 89.768 43.5458 84.3728 43.5458 77.8029C43.5458 71.233 48.1839 65.8285 54.0642 65.8285C59.9447 65.8285 64.6838 71.2235 64.5826 77.8029C64.5918 84.3728 59.9447 89.768 54.0642 89.768ZM92.9354 89.768C87.1563 89.768 82.4169 84.3728 82.4169 77.8029C82.4169 71.233 87.0549 65.8285 92.9354 65.8285C98.8157 65.8285 103.555 71.2235 103.454 77.8029C103.454 84.3728 98.8157 89.768 92.9354 89.768Z" fill="#5865F2"/>
</svg>
