<svg width="20" height="20" viewBox="0 0 20 20" fill="none" xmlns="http://www.w3.org/2000/svg">
<g id="goal 1" clip-path="url(#clip0_87_101)">
<g id="Group">
<g id="Group_2">
<path id="Vector" d="M15.7934 4.17261L6.80932 0.0712048C6.29565 -0.163795 5.70366 0.211127 5.70366 0.78183C5.70366 0.818197 5.70366 17.8599 5.70366 18.4375H4.53182C4.10034 18.4375 3.75061 18.7873 3.75061 19.2187C3.75061 19.6502 4.10034 20 4.53182 20H8.43795C8.86944 20 9.21916 19.6502 9.21916 19.2188C9.21916 18.7873 8.8694 18.4376 8.43795 18.4376H7.26612V9.48683L15.7934 5.59394C16.4007 5.31675 16.4021 4.45042 15.7934 4.17261ZM7.26612 7.76929V1.99726L13.5878 4.88328L7.26612 7.76929Z" fill="#FDB913"/>
</g>
</g>
</g>
<defs>
<clipPath id="clip0_87_101">
<rect width="20" height="20" fill="white"/>
</clipPath>
</defs>
</svg>
