<svg width="20" height="20" viewBox="0 0 20 20" fill="none" xmlns="http://www.w3.org/2000/svg">
<g clip-path="url(#clip0_87_94)">
<path d="M6.87791 15.3472C7.32759 14.8236 7.60041 14.1438 7.60041 13.401C7.60041 11.7519 6.25871 10.41 4.60938 10.41C2.96021 10.41 1.6185 11.7519 1.6185 13.401C1.6185 14.1438 1.89118 14.8236 2.34101 15.3472C1.42014 15.7942 0.633241 16.509 0.105286 17.4208C-0.110931 17.7942 0.0164797 18.2721 0.389863 18.4883C0.763246 18.7046 1.24115 18.5773 1.45752 18.2039C2.08466 17.1207 3.23334 16.434 4.47816 16.3887C4.58008 16.3931 4.63868 16.3931 4.74076 16.3887C5.98557 16.434 7.1341 17.1207 7.76139 18.2039C7.977 18.5761 8.45445 18.7053 8.82905 18.4883C9.20244 18.2721 9.32985 17.7942 9.11363 17.4208C8.58552 16.5091 7.79878 15.7942 6.87791 15.3472ZM4.71268 14.8255C4.59687 14.823 4.62296 14.823 4.50623 14.8255C3.76664 14.7722 3.181 14.1539 3.181 13.401C3.181 12.6134 3.82172 11.9725 4.60938 11.9725C5.39704 11.9725 6.03791 12.6134 6.03791 13.401C6.03791 14.1539 5.45228 14.7722 4.71268 14.8255ZM19.8947 17.4208C19.3666 16.5091 18.5799 15.7942 17.659 15.3472C18.1087 14.8236 18.3815 14.1438 18.3815 13.401C18.3815 11.7519 17.0398 10.4102 15.3905 10.4102C13.7413 10.4102 12.3996 11.7519 12.3996 13.401C12.3996 14.1438 12.6723 14.8238 13.1221 15.3472C12.2011 15.7942 11.4144 16.5091 10.8864 17.4208C10.6702 17.7942 10.7976 18.2723 11.171 18.4885C11.5444 18.7046 12.0223 18.5773 12.2385 18.2039C12.8658 17.1207 14.0145 16.434 15.2593 16.3887C15.3612 16.3931 15.4198 16.3931 15.5219 16.3887C16.7667 16.434 17.9152 17.1207 18.5425 18.2039C18.7581 18.5761 19.2356 18.7053 19.6102 18.4885C19.9835 18.2723 20.111 17.7942 19.8947 17.4208ZM15.4938 14.8255C15.378 14.823 15.4041 14.823 15.2873 14.8255C14.5477 14.7722 13.9621 14.1539 13.9621 13.401C13.9621 12.6134 14.6028 11.9725 15.3905 11.9725C16.1782 11.9725 16.819 12.6134 16.819 13.401C16.819 14.1539 16.2334 14.7722 15.4938 14.8255ZM13.1519 9.23875C13.3679 9.61228 13.8458 9.73985 14.2192 9.52378C14.5928 9.30772 14.7203 8.82981 14.5043 8.45643C13.976 7.54319 13.1888 6.8274 12.2672 6.38001C12.7178 5.85679 12.9909 5.17685 12.9909 4.4339C12.9909 2.78595 11.6492 1.44531 10 1.44531C8.35069 1.44531 7.00898 2.78595 7.00898 4.4339C7.00898 5.17685 7.28227 5.85679 7.73271 6.38001C6.81123 6.8274 6.02387 7.54319 5.49561 8.45643C5.27955 8.82981 5.40711 9.30772 5.78065 9.52378C6.15403 9.73985 6.63209 9.61228 6.84815 9.23875C7.48323 8.14073 8.65297 7.44996 9.91578 7.42051C10.0197 7.42341 9.98018 7.42341 10.0841 7.42051C11.3469 7.44996 12.5166 8.14073 13.1519 9.23875ZM10.0783 5.85785C9.96858 5.85618 10.0458 5.85602 9.92174 5.85785C9.17039 5.81711 8.57148 5.1941 8.57148 4.4339C8.57148 3.64762 9.21235 3.00781 10 3.00781C10.7877 3.00781 11.4285 3.64762 11.4285 4.4339C11.4285 5.1941 10.8296 5.81711 10.0783 5.85785Z" fill="#FDB913"/>
</g>
<defs>
<clipPath id="clip0_87_94">
<rect width="20" height="20" fill="white"/>
</clipPath>
</defs>
</svg>
