<svg width="92" height="71" viewBox="0 0 92 71" fill="none" xmlns="http://www.w3.org/2000/svg">
<g id="ICO" clip-path="url(#clip0_87_380)">
<g id="Icon">
<path id="Vector" fill-rule="evenodd" clip-rule="evenodd" d="M87.7196 58.8326V54.5908C87.7196 52.6221 86.9314 50.7349 85.5253 49.3428C84.1212 47.9468 82.2177 47.1672 80.232 47.1672H11.768C9.7823 47.1672 7.8788 47.9488 6.47474 49.3428C5.06667 50.7349 4.2804 52.6221 4.2804 54.5908V58.8326C4.2804 61.9249 5.52199 64.8959 7.72435 67.0834C9.93274 69.2689 12.9274 70.4979 16.0464 70.4979H75.9536C79.0726 70.4979 82.0693 69.267 84.2757 67.0834C86.4801 64.8939 87.7196 61.9249 87.7196 58.8326ZM81.3011 54.5908V58.8326C81.3011 60.2405 80.7355 61.5868 79.7346 62.5831C78.7297 63.5755 77.3717 64.1363 75.9516 64.1363H16.0464C14.6263 64.1363 13.2684 63.5755 12.2635 62.5831C11.2626 61.5868 10.6969 60.2405 10.6969 58.8326V54.5908C10.6969 54.3104 10.8073 54.04 11.0099 53.8391C11.2124 53.6383 11.4852 53.5289 11.768 53.5289H80.232C80.5148 53.5289 80.7876 53.6383 80.9902 53.8391C81.1928 54.04 81.3031 54.3104 81.3031 54.5908H81.3011Z" fill="#FDB913"/>
<path id="Vector_2" fill-rule="evenodd" clip-rule="evenodd" d="M92 43.9854C92 38.7115 87.6915 34.4399 82.3722 34.4399H9.62784C4.30846 34.4399 0 38.7115 0 43.9854C0 49.2593 4.30846 53.5309 9.62784 53.5309H82.3722C87.6915 53.5309 92 49.2593 92 43.9854ZM85.5814 43.9854C85.5814 45.7414 84.1433 47.1672 82.3722 47.1672H9.62784C7.85672 47.1672 6.41856 45.7414 6.41856 43.9854C6.41856 42.2294 7.85672 40.8036 9.62784 40.8036H82.3722C84.1433 40.8036 85.5814 42.2294 85.5814 43.9854Z" fill="#FDB913"/>
<path id="Vector_3" fill-rule="evenodd" clip-rule="evenodd" d="M87.7196 33.3781V29.1364C87.7196 21.5418 84.6768 14.2574 79.2592 8.88807C73.8415 3.51875 66.4963 0.5 58.8361 0.5H33.1619C25.5017 0.5 18.1545 3.51676 12.7388 8.88807C7.32318 14.2594 4.27838 21.5437 4.27838 29.1364V33.3781C4.27838 35.3469 5.06666 37.2341 6.47273 38.6261C7.87679 40.0222 9.78029 40.8017 11.766 40.8017H80.23C82.2157 40.8017 84.1192 40.0202 85.5233 38.6261C86.9314 37.2341 87.7176 35.3469 87.7176 33.3781H87.7196ZM81.3011 33.3781C81.3011 33.6585 81.1908 33.929 80.9882 34.1298C80.7856 34.3307 80.5128 34.4401 80.23 34.4401H11.768C11.4852 34.4401 11.2124 34.3307 11.0098 34.1298C10.8073 33.929 10.6969 33.6585 10.6969 33.3781V29.1364C10.6969 23.2301 13.0638 17.5625 17.278 13.3884C21.4881 9.21023 27.2047 6.86364 33.1619 6.86364H58.8361C64.7934 6.86364 70.5099 9.21023 74.7201 13.3884C78.9342 17.5625 81.3011 23.2301 81.3011 29.1364V33.3781Z" fill="#FDB913"/>
<path id="Vector_4" fill-rule="evenodd" clip-rule="evenodd" d="M42.7897 18.5309V22.7727C42.7897 24.5287 44.2279 25.9545 45.999 25.9545C47.7701 25.9545 49.2083 24.5287 49.2083 22.7727V18.5309C49.2083 16.775 47.7701 15.3491 45.999 15.3491C44.2279 15.3491 42.7897 16.775 42.7897 18.5309Z" fill="#FDB913"/>
<path id="Vector_5" fill-rule="evenodd" clip-rule="evenodd" d="M57.767 18.5309V22.7727C57.767 24.5287 59.2052 25.9545 60.9763 25.9545C62.7474 25.9545 64.1856 24.5287 64.1856 22.7727V18.5309C64.1856 16.775 62.7474 15.3491 60.9763 15.3491C59.2052 15.3491 57.767 16.775 57.767 18.5309Z" fill="#FDB913"/>
<path id="Vector_6" fill-rule="evenodd" clip-rule="evenodd" d="M27.8144 18.5309V22.7727C27.8144 24.5287 29.2526 25.9545 31.0237 25.9545C32.7948 25.9545 34.2329 24.5287 34.2329 22.7727V18.5309C34.2329 16.775 32.7948 15.3491 31.0237 15.3491C29.2526 15.3491 27.8144 16.775 27.8144 18.5309Z" fill="#FDB913"/>
</g>
</g>
<defs>
<clipPath id="clip0_87_380">
<rect width="92" height="70" fill="white" transform="translate(0 0.5)"/>
</clipPath>
</defs>
</svg>
