<svg width="86" height="81" viewBox="0 0 86 81" fill="none" xmlns="http://www.w3.org/2000/svg">
<g id="ICO" clip-path="url(#clip0_87_358)">
<g id="Icon">
<path id="Vector" fill-rule="evenodd" clip-rule="evenodd" d="M44.9509 18.1512L35.351 46.951C34.8316 48.5222 35.6791 50.2228 37.2503 50.7478C38.8216 51.2672 40.5222 50.4197 41.0472 48.8485L50.6471 20.0487C51.1665 18.4775 50.319 16.7769 48.7478 16.2519C47.1765 15.7325 45.4759 16.58 44.9509 18.1512Z" fill="#FDB913"/>
<path id="Vector_2" fill-rule="evenodd" clip-rule="evenodd" d="M53.2796 26.0205L60.7552 33.4998L53.2796 40.9791C52.1077 42.1473 52.1077 44.0504 53.2796 45.2185C54.4477 46.3903 56.3508 46.3903 57.5189 45.2185L67.1189 35.6186C68.2907 34.4467 68.2907 32.5511 67.1189 31.3792L57.5189 21.7793C56.3508 20.6074 54.4477 20.6074 53.2796 21.7793C52.1077 22.9474 52.1077 24.8505 53.2796 26.0186V26.0205Z" fill="#FDB913"/>
<path id="Vector_3" fill-rule="evenodd" clip-rule="evenodd" d="M28.4792 21.7791L18.8793 31.379C17.7074 32.5509 17.7074 34.4465 18.8793 35.6184L28.4792 45.2183C29.6473 46.3902 31.5504 46.3902 32.7185 45.2183C33.8904 44.0502 33.8904 42.1471 32.7185 40.979L25.243 33.4997L32.7185 26.0203C33.8904 24.8522 33.8904 22.9491 32.7185 21.781C31.5504 20.6091 29.6473 20.6091 28.4792 21.781V21.7791Z" fill="#FDB913"/>
<path id="Vector_4" fill-rule="evenodd" clip-rule="evenodd" d="M86 9.49993C86 7.1112 85.0512 4.82372 83.3638 3.13623C81.6763 1.44874 79.3869 0.5 77.0001 0.5H8.99993C6.6112 0.5 4.32372 1.44874 2.63623 3.13623C0.948743 4.82372 0 7.1112 0 9.49993V57.4995C0 59.8883 0.948743 62.1758 2.63623 63.8633C4.32372 65.5507 6.61308 66.4995 8.99993 66.4995H77.0001C79.3888 66.4995 81.6763 65.5507 83.3638 63.8633C85.0512 62.1758 86 59.8864 86 57.4995V9.49993ZM80 9.49993V57.4995C80 58.2964 79.6832 59.0595 79.1207 59.6202C78.5601 60.1845 77.7969 60.4995 77.0001 60.4995H8.99993C8.20306 60.4995 7.43995 60.1827 6.87932 59.6202C6.31495 59.0595 5.99996 58.2964 5.99996 57.4995V9.49993C5.99996 8.70306 6.31683 7.93994 6.87932 7.37932C7.43995 6.81495 8.20306 6.49995 8.99993 6.49995H77.0001C77.7969 6.49995 78.5601 6.81682 79.1207 7.37932C79.685 7.93994 80 8.70306 80 9.49993Z" fill="#FDB913"/>
<path id="Vector_5" fill-rule="evenodd" clip-rule="evenodd" d="M39.9991 63.4995V77.5C39.9991 79.1556 41.3434 80.5 42.9991 80.5C44.6547 80.5 45.999 79.1556 45.999 77.5V63.4995C45.999 61.8439 44.6547 60.4995 42.9991 60.4995C41.3434 60.4995 39.9991 61.8439 39.9991 63.4995Z" fill="#FDB913"/>
<path id="Vector_6" fill-rule="evenodd" clip-rule="evenodd" d="M24.9992 80.5H60.9989C62.6545 80.5 63.9989 79.1556 63.9989 77.5C63.9989 75.8444 62.6545 74.5 60.9989 74.5H24.9992C23.3436 74.5 21.9992 75.8444 21.9992 77.5C21.9992 79.1556 23.3436 80.5 24.9992 80.5Z" fill="#FDB913"/>
</g>
</g>
<defs>
<clipPath id="clip0_87_358">
<rect width="86" height="80" fill="white" transform="translate(0 0.5)"/>
</clipPath>
</defs>
</svg>
