<svg width="92" height="69" viewBox="0 0 92 69" fill="none" xmlns="http://www.w3.org/2000/svg">
<g id="ICO" clip-path="url(#clip0_87_7)">
<g id="Icon">
<g id="Group">
<path id="Vector" fill-rule="evenodd" clip-rule="evenodd" d="M46.0083 0.5C27.1452 0.5 11.8277 15.7361 11.8277 34.499C11.8277 53.2618 27.1452 68.4979 46.0083 68.4979C64.8714 68.4979 80.1889 53.2618 80.1889 34.499C80.1889 15.7361 64.8714 0.5 46.0083 0.5ZM46.0083 7.08058C61.2203 7.08058 73.5731 19.3678 73.5731 34.499C73.5731 49.6302 61.2203 61.9174 46.0083 61.9174C30.7962 61.9174 18.4434 49.6302 18.4434 34.499C18.4434 19.3678 30.7962 7.08058 46.0083 7.08058Z" fill="#FDB913"/>
<path id="Vector_2" fill-rule="evenodd" clip-rule="evenodd" d="M48.2142 35.5972C42.7356 35.5972 38.2906 40.0185 38.2906 45.468C38.2906 50.9176 42.7356 55.3389 48.2142 55.3389C53.6929 55.3389 58.1378 50.9176 58.1378 45.468C58.1378 40.0185 53.6929 35.5972 48.2142 35.5972ZM48.2142 42.1777C50.0398 42.1777 51.5221 43.6522 51.5221 45.468C51.5221 47.2839 50.0398 48.7583 48.2142 48.7583C46.3887 48.7583 44.9064 47.2839 44.9064 45.468C44.9064 43.6522 46.3887 42.1777 48.2142 42.1777Z" fill="#FDB913"/>
<path id="Vector_3" fill-rule="evenodd" clip-rule="evenodd" d="M6.67154 44.9806C6.72529 44.8449 6.80799 44.6434 6.89275 44.5118C7.21527 43.9853 7.6825 43.4507 8.26965 42.8893C10.1345 41.0899 13.033 39.1918 16.684 37.2649C18.2987 36.4136 18.9148 34.4229 18.0609 32.8169C17.205 31.2149 15.2038 30.6021 13.5891 31.4534C7.30417 34.7622 2.99981 38.2129 1.24044 41.096C0.0123915 43.099 -0.243968 45.0115 0.210863 46.7039C0.868302 49.1429 3.28098 51.3761 7.68664 52.4331C14.6145 54.0968 27.569 53.3585 42.4668 50.0415C44.2489 49.6467 45.3736 47.8884 44.9725 46.1158C44.5755 44.3432 42.8079 43.2245 41.0258 43.6234C29.2415 46.2433 18.7845 47.2468 12.0096 46.5003C10.0993 46.2906 8.52601 45.9554 7.38273 45.4207C7.13671 45.3076 6.83486 45.0958 6.6736 44.9786L6.67154 44.9806Z" fill="#FDB913"/>
<path id="Vector_4" fill-rule="evenodd" clip-rule="evenodd" d="M85.3408 24.0112C85.2519 24.2086 85.0845 24.5685 84.9129 24.8091C84.1417 25.8743 82.8806 26.9848 81.2391 28.1611C75.4834 32.2883 65.4978 36.7282 53.5316 40.3475C51.7805 40.8739 50.7964 42.7124 51.3257 44.4501C51.8549 46.1877 53.7073 47.1707 55.4543 46.6443C70.534 42.0852 82.6263 36.1462 88.0347 31.1367C91.4521 27.9781 92.4714 24.7721 91.8057 22.2961C91.3467 20.6037 90.1641 19.0758 88.1008 17.9488C85.1279 16.3304 79.6761 15.4791 72.5808 15.7341C70.7552 15.7999 69.3266 17.3257 69.3928 19.1436C69.459 20.9553 70.993 22.3763 72.8206 22.3105C76.9451 22.1604 80.3977 22.3681 82.9158 22.9953C83.7055 23.1927 84.3795 23.4251 84.9191 23.7192C85.0555 23.7932 85.2271 23.9248 85.3429 24.0133L85.3408 24.0112Z" fill="#FDB913"/>
</g>
</g>
</g>
<defs>
<clipPath id="clip0_87_7">
<rect width="92" height="68" fill="white" transform="translate(0 0.5)"/>
</clipPath>
</defs>
</svg>
