<svg width="53" height="35" viewBox="0 0 53 35" fill="none" xmlns="http://www.w3.org/2000/svg">
<g clip-path="url(#clip0_87_108)">
<path d="M8.37836 34.94L14.6694 35L20.5652 27.68L13.4061 30.3238L8.37836 34.94Z" fill="#FDB913"/>
<path d="M46.4648 19.217L51.5288 18.1511L53 14.9751L51.0389 14.5215L45.9083 11.1104L42.0009 4.89907L40.3603 5.35769L38.7803 0.908664L35.0084 3.72467L35.479 1.18798L28.6604 0L30.9034 1.88305L22.7179 0.908664L25.8564 3.04388L17.4741 3.12889L21.3585 5.05552L13.9989 6.61139L17.8315 7.54791L13.2189 8.9802L13.0798 8.98663L12.9717 9.05735L9.70302 10.0725L11.0366 10.3232L7.91215 12.3663L7.91585 12.3463L4.78404 14.2657L3.2988 17.4639L0.594727 18.7955L1.06465 20.0556L4.56647 19.1262L6.53051 21.0321L6.66741 26.4263L1.45242 35H6.10573L12.9688 28.7822L21.9387 25.7362L31.1276 21.3222L40.5697 23.5038L42.4057 27.1642L47.0383 25.0447L44.7812 21.1657L39.1281 17.4796L40.193 16.9682L46.4655 19.2177L46.4648 19.217ZM43.202 9.63027L43.945 11.4497L41.0958 10.201L43.2027 9.63027H43.202Z" fill="#FDB913"/>
<path d="M30.8827 22.7052L28.7773 23.8746L35.0942 26.6213L36.8185 29.4952L40.7414 27.68L39.2702 24.9576L30.8827 22.7052Z" fill="#FDB913"/>
</g>
<rect x="1.09473" y="0.5" width="51.4052" height="34" stroke="black"/>
<defs>
<clipPath id="clip0_87_108">
<rect x="0.594727" width="52.4052" height="35" fill="white"/>
</clipPath>
</defs>
</svg>
