<svg width="16" height="16" viewBox="0 0 16 16" fill="none" xmlns="http://www.w3.org/2000/svg">
<path fill-rule="evenodd" clip-rule="evenodd" d="M14.7526 6.5C15.1669 6.5 15.5026 6.16421 15.5026 5.75V1.25C15.5026 0.83579 15.1669 0.5 14.7526 0.5H10.2499C9.8357 0.5 9.49992 0.835782 9.49992 1.25C9.49992 1.66421 9.8357 2 10.2499 2H12.9421L6.48712 8.45495C6.19423 8.74783 6.19423 9.22273 6.48712 9.5156C6.78005 9.80855 7.25488 9.80855 7.54775 9.5156L14.0026 3.06078V5.75C14.0026 6.16421 14.3384 6.5 14.7526 6.5ZM2.75 2.75C1.50736 2.75 0.5 3.75736 0.5 5V13.25C0.5 14.4927 1.50736 15.5 2.75 15.5H11C12.2427 15.5 13.25 14.4927 13.25 13.25V8.75C13.25 8.33578 12.9142 8 12.5 8C12.0858 8 11.75 8.33578 11.75 8.75V13.25C11.75 13.6642 11.4142 14 11 14H2.75C2.33579 14 2 13.6642 2 13.25V5C2 4.58579 2.33579 4.25 2.75 4.25H7.25C7.66423 4.25 8 3.91421 8 3.5C8 3.08579 7.66423 2.75 7.25 2.75H2.75Z" fill="#0000EE"/>
</svg>
