<svg width="30" height="21" viewBox="0 0 30 21" fill="none" xmlns="http://www.w3.org/2000/svg">
<path d="M26.2588 11.5302L29.1578 10.8907L30 8.98506L28.8774 8.71289L25.9403 6.66625L23.7035 2.93944L22.7642 3.21461L21.8598 0.545198L19.7005 2.2348L19.9699 0.712787L16.0665 0L17.3506 1.12983L12.6647 0.545198L14.4613 1.82633L9.66278 1.87733L11.8865 3.03331L7.67337 3.96683L9.8674 4.52875L7.22686 5.38812L7.14721 5.39198L7.08536 5.43441L5.21415 6.04347L5.97755 6.19392L4.18894 7.41976L4.19106 7.40776L2.39822 8.55944L1.54798 10.4784L0 11.2773L0.269011 12.0334L2.27367 11.4757L3.39801 12.6193L3.47638 15.8558L0.490998 21H3.15484L7.08367 17.2693L12.2186 15.4417L17.4789 12.7933L22.8841 14.1023L23.9352 16.2985L26.5872 15.0268L25.2951 12.6994L22.0589 10.4878L22.6685 10.1809L26.2593 11.5306L26.2588 11.5302ZM24.391 5.77816L24.8164 6.86984L23.1853 6.12062L24.3914 5.77816H24.391Z" fill="black"/>
</svg>
