<svg viewBox="0 0 24 24" fill="none" xmlns="http://www.w3.org/2000/svg"><g id="SVGRepo_bgCarrier" stroke-width="0"></g><g id="SVGRepo_tracerCarrier" stroke-linecap="round" stroke-linejoin="round"></g><g id="SVGRepo_iconCarrier"> <path d="M21.9999 5.9246C21.2644 6.25051 20.4744 6.47071 19.6437 6.57025C20.4911 6.06289 21.1411 5.25782 21.4477 4.29948C20.6549 4.76984 19.7767 5.1116 18.8422 5.29481C18.0935 4.49855 17.0277 4 15.8474 4C13.5819 4 11.7445 5.8374 11.7445 8.10464C11.7445 8.42526 11.7815 8.73707 11.8502 9.03832C8.43877 8.86656 5.41666 7.23263 3.39252 4.75046C3.04019 5.35823 2.8376 6.06289 2.8376 6.81335C2.8376 8.23677 3.56252 9.4937 4.66267 10.2292C3.98972 10.2072 3.35729 10.0231 2.80413 9.71567V9.76852C2.80413 11.7565 4.21786 13.4151 6.09577 13.7921C5.75049 13.8855 5.38847 13.9348 5.015 13.9348C4.75075 13.9348 4.49267 13.9102 4.24252 13.8626C4.76485 15.4921 6.27987 16.6795 8.07587 16.7112C6.67095 17.8122 4.90137 18.4684 2.97942 18.4684C2.64823 18.4684 2.32144 18.449 1.99994 18.4112C3.8162 19.5765 5.97246 20.2547 8.28903 20.2547C15.8377 20.2547 19.9644 14.0026 19.9644 8.58029C19.9644 8.40412 19.9599 8.2262 19.952 8.05003C20.7536 7.47045 21.4494 6.74905 21.9982 5.92724L21.9999 5.9246Z" stroke="#FDB913" stroke-linejoin="round"></path> </g></svg>