<?xml version="1.0" encoding="utf-8"?>
<!-- Generator: Adobe Illustrator 27.8.0, SVG Export Plug-In . SVG Version: 6.00 Build 0)  -->
<svg version="1.1" xmlns="http://www.w3.org/2000/svg" xmlns:xlink="http://www.w3.org/1999/xlink" x="0px" y="0px"
	 viewBox="0 0 754 280" style="enable-background:new 0 0 754 280;" xml:space="preserve">
<style type="text/css">
	.st0{fill:#F8F8F9;}
	.st1{fill:#FDB913;}
	.st2{fill:#231F20;}
	.st3{fill:#FFFFFF;}
</style>
<g id="Layer_1">
</g>
<g id="Layer_2">
	<g>
		<g>
			<path class="st1" d="M293.5,144.5l-0.3-32.8l-14.7,32.8h-20.4V86.6h17.3l-0.3,35.4l16.6-35.4H305l1,35.4l15.2-35.4h22l-31.2,57.9
				H293.5z"/>
			<path class="st1" d="M366,144.5v-7.5h-19.1l-3.9,7.5h-19.9l34.1-57.9h24v57.9H366z M366,101.2l-11.4,21.3H366V101.2z"/>
			<path class="st1" d="M423.9,144.5l-8-18.6h-6.3v18.6H392V86.6h30.9c13.5,0,20.8,9,20.8,19.9c0,10-5.8,15.3-10.4,17.5l10.5,20.5
				H423.9z M420.2,101.2h-10.7v10.2h10.7c3,0,5.7-1.9,5.7-5.1C426,103.1,423.2,101.2,420.2,101.2z"/>
			<path class="st1" d="M462.4,144.5v-42.6h-15.5V86.6h48.6v15.3H480v42.6H462.4z"/>
			<path class="st1" d="M540,144.5v-22.1h-20.8v22.1h-17.5V86.6h17.5v20.5H540V86.6h17.5v57.9H540z"/>
			<path class="st1" d="M595.5,85.7c17.9,0,31.7,12.2,31.7,30c0,17.8-13.8,30-31.7,30c-17.9,0-31.7-12.2-31.7-30
				C563.8,97.8,577.6,85.7,595.5,85.7z M595.5,101.1c-8.4,0-13.9,6.4-13.9,14.5s5.5,14.5,13.9,14.5c8.4,0,13.9-6.4,13.9-14.5
				S603.9,101.1,595.5,101.1z"/>
			<path class="st1" d="M662.2,85.7c13.5,0,21.5,6.8,25.4,14.2l-14.8,7.6c-1.9-3.6-5.7-6.3-10.7-6.3c-8.4,0-14.1,6.4-14.1,14.5
				s5.6,14.5,14.1,14.5c3.7,0,7.2-1,9.5-2.6V125h-11.2v-14.4h28.2v23.3c-6.4,7.1-15.1,11.7-26.5,11.7c-17.5,0-31.9-11.5-31.9-30
				C630.4,97,644.7,85.7,662.2,85.7z"/>
			<g>
				<path class="st1" d="M286.3,193.6l-23.2-31v31h-4.9v-38.4h5.1l22.9,30.3v-30.3h4.9v38.4H286.3z"/>
				<path class="st1" d="M304.8,193.6v-38.4h26v4.3h-21.1v12.4h20.7v4.3h-20.7v13.2h21.1v4.3H304.8z"/>
				<path class="st1" d="M352.9,193.6v-34.1h-12.6v-4.3h30.1v4.3h-12.6v34.1H352.9z"/>
				<path class="st1" d="M411.8,193.6l-8.8-31l-8.8,31h-5.4l-11.3-38.4h5.5l8.8,32l9.1-32h4.1l9.1,32l8.8-32h5.5l-11.3,38.4H411.8z"
					/>
				<path class="st1" d="M455.4,154.6c11.7,0,19.7,8.5,19.7,19.9c0,11.3-8,19.9-19.7,19.9c-11.8,0-19.7-8.5-19.7-19.9
					C435.6,163.1,443.6,154.6,455.4,154.6z M455.4,158.9c-8.9,0-14.6,6.6-14.6,15.6c0,8.9,5.7,15.6,14.6,15.6
					c8.9,0,14.6-6.7,14.6-15.6C469.9,165.5,464.2,158.9,455.4,158.9z"/>
				<path class="st1" d="M510.2,193.6l-10.1-15.3h-7.9v15.3h-4.9v-38.4h16c7.3,0,12.4,4.5,12.4,11.6c0,6.9-4.9,10.7-10.3,11.2
					l10.7,15.7H510.2z M502.6,159.5h-10.4v14.7h10.4c4.7,0,7.9-3.1,7.9-7.4C510.5,162.5,507.3,159.5,502.6,159.5z"/>
				<path class="st1" d="M551.8,193.6l-15.1-17.3l-4,4.4v12.9h-4.9v-38.4h4.9v19.9l17.6-19.9h6.2L540,173.5l18,20.2H551.8z"/>
			</g>
		</g>
		<g>
			<circle class="st1" cx="145.3" cy="140" r="80"/>
			<g>
				<polygon class="st2" points="106.2,178.3 119.6,178.4 132.1,162.4 116.9,168.2 				"/>
				<g>
					<path class="st2" d="M187,143.8l10.7-2.3l3.1-7l-4.2-1l-10.9-7.5l-8.3-13.6l-3.5,1l-3.3-9.8l-8,6.2l1-5.6l-14.5-2.6l4.8,4.1
						l-17.4-2.1l6.7,4.7l-17.8,0.2l8.2,4.2l-15.6,3.4l8.1,2.1l-9.8,3.1l-0.3,0l-0.2,0.2l-6.9,2.2l2.8,0.6l-6.6,4.5l0,0l-6.6,4.2
						l-3.1,7l-5.7,2.9l1,2.8l7.4-2l4.2,4.2l0.3,11.8l-11.1,18.8h9.9l14.5-13.7l19-6.7l19.5-9.7l20,4.8l3.9,8l9.8-4.7l-4.8-8.5
						l-12-8.1l2.3-1.1L187,143.8z M180.1,122.7l1.6,4l-6-2.7L180.1,122.7z"/>
					<polygon class="st2" points="153.9,151.4 149.5,154 162.9,160 166.5,166.3 174.8,162.4 171.7,156.4 					"/>
				</g>
			</g>
		</g>
	</g>
</g>
</svg>
