<svg width="124" height="94" viewBox="0 0 124 94" fill="none" xmlns="http://www.w3.org/2000/svg">
<g style="mix-blend-mode:overlay" clip-path="url(#clip0_87_41)">
<path d="M120.367 50.6154H3.63281C1.6275 50.6154 0 52.235 0 54.2307C0 56.2264 1.6275 57.8461 3.63281 57.8461H55.5845L37.0886 88.5239C35.6379 90.9317 37.3841 94 40.2031 94H83.7969C86.6184 94 88.3621 90.9317 86.9114 88.5239L68.4155 57.8461H120.367C122.372 57.8461 124 56.2264 124 54.2307C124 52.235 122.372 50.6154 120.367 50.6154ZM46.6187 86.7692L62 61.2566L77.3813 86.7692H46.6211H46.6187Z" fill="white"/>
<path d="M21.7969 43.3846C33.8166 43.3846 43.5938 33.6544 43.5938 21.6923C43.5938 9.7302 33.8166 0 21.7969 0C9.77711 0 0 9.7302 0 21.6923C0 33.6544 9.77711 43.3846 21.7969 43.3846ZM21.7969 7.23077C29.8084 7.23077 36.3281 13.7192 36.3281 21.6923C36.3281 29.6654 29.8084 36.1538 21.7969 36.1538C13.7853 36.1538 7.26562 29.6654 7.26562 21.6923C7.26562 13.7192 13.7853 7.23077 21.7969 7.23077Z" fill="white"/>
<path d="M102.203 43.3846C114.223 43.3846 124 33.6544 124 21.6923C124 9.7302 114.223 0 102.203 0C90.1834 0 80.4062 9.7302 80.4062 21.6923C80.4062 33.6544 90.1834 43.3846 102.203 43.3846ZM102.203 7.23077C110.215 7.23077 116.734 13.7192 116.734 21.6923C116.734 29.6654 110.215 36.1538 102.203 36.1538C94.1916 36.1538 87.6719 29.6654 87.6719 21.6923C87.6719 13.7192 94.1916 7.23077 102.203 7.23077Z" fill="white"/>
</g>
<defs>
<clipPath id="clip0_87_41">
<rect width="124" height="94" fill="white"/>
</clipPath>
</defs>
</svg>
