<svg width="102" height="102" viewBox="0 0 102 102" fill="none" xmlns="http://www.w3.org/2000/svg">
<g style="mix-blend-mode:overlay" clip-path="url(#clip0_87_56)">
<path d="M18.9758 21.3486C20.9409 21.3486 22.534 19.7556 22.534 17.7905C22.534 15.8254 20.9409 14.2324 18.9758 14.2324C17.0107 14.2324 15.4177 15.8254 15.4177 17.7905C15.4177 19.7556 17.0107 21.3486 18.9758 21.3486Z" fill="white"/>
<path d="M30.8377 21.3486C32.8028 21.3486 34.3958 19.7556 34.3958 17.7905C34.3958 15.8254 32.8028 14.2324 30.8377 14.2324C28.8726 14.2324 27.2796 15.8254 27.2796 17.7905C27.2796 19.7556 28.8726 21.3486 30.8377 21.3486Z" fill="white"/>
<path d="M42.6973 21.3486C44.6624 21.3486 46.2554 19.7556 46.2554 17.7905C46.2554 15.8254 44.6624 14.2324 42.6973 14.2324C40.7322 14.2324 39.1392 15.8254 39.1392 17.7905C39.1392 19.7556 40.7322 21.3486 42.6973 21.3486Z" fill="white"/>
<path fill-rule="evenodd" clip-rule="evenodd" d="M102 55.7445V15.4178C102 6.90274 95.0973 0 86.5822 0H15.4178C6.90274 0 0 6.90274 0 15.4178V86.58C0 95.095 6.90274 101.998 15.4178 101.998H50.9989C52.9625 101.998 54.557 100.403 54.557 98.4397C54.557 96.476 52.9625 94.8815 50.9989 94.8815H15.4178C10.83 94.8815 7.11623 91.1678 7.11623 86.58V15.4178C7.11623 10.83 10.83 7.11623 15.4178 7.11623H86.58C91.1678 7.11623 94.8815 10.83 94.8815 15.4178V55.7423C94.8815 57.7059 96.476 59.3004 98.4397 59.3004C100.403 59.3004 101.998 57.7059 101.998 55.7423L102 55.7445Z" fill="white"/>
<path fill-rule="evenodd" clip-rule="evenodd" d="M98.4419 28.4648H3.55811C1.59448 28.4648 0 30.0593 0 32.023C0 33.9866 1.59448 35.5811 3.55811 35.5811H98.4419C100.406 35.5811 102 33.9866 102 32.023C102 30.0593 100.406 28.4648 98.4419 28.4648Z" fill="white"/>
<path fill-rule="evenodd" clip-rule="evenodd" d="M95.8645 96.4004L85.8973 82.168C84.7721 80.5601 82.5527 80.1665 80.9449 81.294C79.337 82.4192 78.9434 84.6386 80.0709 86.2464L90.0336 100.479C91.1633 102.087 93.3827 102.48 94.9905 101.353C96.5983 100.228 96.992 98.0082 95.8645 96.4004Z" fill="white"/>
<path fill-rule="evenodd" clip-rule="evenodd" d="M98.7599 70.3751C90.6563 65.6984 75.9835 57.2346 68.0645 52.6646C65.8829 51.4081 63.1743 51.526 61.1106 52.9693C59.0513 54.4125 58.0128 56.921 58.4487 59.3983C60.0343 68.4026 62.9697 85.0879 64.5931 94.3012C65.0334 96.8297 66.937 98.86 69.4321 99.4671C71.9273 100.079 74.5469 99.158 76.1125 97.1188L84.434 86.2732L97.4701 82.1658C99.9229 81.3919 101.682 79.2437 101.962 76.6908C102.242 74.1378 100.986 71.6583 98.7599 70.3773V70.3751ZM93.9431 75.8124L81.2184 79.8263C80.5201 80.0443 79.9086 80.4713 79.4682 81.0494L71.3468 91.6393L65.6917 59.5117L93.9431 75.8124Z" fill="white"/>
</g>
<defs>
<clipPath id="clip0_87_56">
<rect width="102" height="102" fill="white"/>
</clipPath>
</defs>
</svg>
