<svg width="123" height="125" viewBox="0 0 123 125" fill="none" xmlns="http://www.w3.org/2000/svg">
<g clip-path="url(#clip0_87_51)">
<g style="mix-blend-mode:overlay">
<path d="M49.9557 37.8788C60.3729 37.8788 68.8465 29.3834 68.8465 18.9394C68.8465 8.49537 60.3729 0 49.9557 0C39.5384 0 31.0649 8.49537 31.0649 18.9394C31.0649 29.3834 39.5384 37.8788 49.9557 37.8788ZM49.9557 6.31313C56.8991 6.31313 62.5495 11.9781 62.5495 18.9394C62.5495 25.9007 56.8991 31.5657 49.9557 31.5657C43.0123 31.5657 37.3618 25.9007 37.3618 18.9394C37.3618 11.9781 43.0123 6.31313 49.9557 6.31313Z" fill="white"/>
</g>
<g style="mix-blend-mode:overlay">
<path d="M56.4625 124.158C41.8851 124.158 28.1809 118.468 17.8728 108.133C7.56473 97.7988 1.8891 84.0593 1.8891 69.4444C1.8891 54.8295 7.56473 41.09 17.8728 30.7554C28.1809 20.4208 41.8851 14.7306 56.4625 14.7306C71.0399 14.7306 84.7441 20.4208 95.0521 30.7554C105.36 41.09 111.036 54.8295 111.036 69.4444C111.036 84.0593 105.36 97.7988 95.0521 108.133C84.7441 118.468 71.0399 124.158 56.4625 124.158ZM56.4625 21.0437C43.5664 21.0437 31.4448 26.0774 22.3268 35.2209C13.2089 44.3623 8.18603 56.5172 8.18603 69.4444C8.18603 82.3716 13.2068 94.5265 22.3268 103.668C31.4469 112.809 43.5685 117.845 56.4625 117.845C69.3565 117.845 81.4802 112.811 90.5981 103.668C99.7161 94.5244 104.739 82.3716 104.739 69.4444C104.739 56.5172 99.7182 44.3623 90.5981 35.2209C81.4802 26.0795 69.3565 21.0437 56.4625 21.0437Z" fill="white"/>
</g>
<g style="mix-blend-mode:overlay">
<path d="M18.8908 125C29.308 125 37.7816 116.505 37.7816 106.061C37.7816 95.6166 29.308 87.1212 18.8908 87.1212C8.47357 87.1212 0 95.6166 0 106.061C0 116.505 8.47357 125 18.8908 125ZM18.8908 93.4343C25.8342 93.4343 31.4846 99.0993 31.4846 106.061C31.4846 113.022 25.8342 118.687 18.8908 118.687C11.9474 118.687 6.29693 113.022 6.29693 106.061C6.29693 99.0993 11.9474 93.4343 18.8908 93.4343Z" fill="white"/>
</g>
<g style="mix-blend-mode:overlay">
<path d="M104.109 105.85C114.526 105.85 123 97.3549 123 86.9108C123 76.4668 114.526 67.9714 104.109 67.9714C93.692 67.9714 85.2184 76.4668 85.2184 86.9108C85.2184 97.3549 93.692 105.85 104.109 105.85ZM104.109 74.2846C111.053 74.2846 116.703 79.9495 116.703 86.9108C116.703 93.8721 111.053 99.5371 104.109 99.5371C97.1658 99.5371 91.5154 93.8721 91.5154 86.9108C91.5154 79.9495 97.1658 74.2846 104.109 74.2846Z" fill="white"/>
</g>
</g>
<defs>
<clipPath id="clip0_87_51">
<rect width="123" height="125" fill="white"/>
</clipPath>
</defs>
</svg>
